<svg xmlns="http://www.w3.org/2000/svg" viewBox="0 0 512 512">
  <rect width="512" height="512" fill="#B4502E"/>
  <circle cx="256" cy="256" r="164" fill="#9C4324"/>
  <g transform="translate(112 112) scale(12)" fill="#FBF6EC">
    <path d="M12 3.1a3.15 3.15 0 0 0-3.15 3.15c0 1.18.65 2.2 1.6 2.75-2.06.69-3.6 2.16-3.6 4.12 0 .86.67 1.45 1.55 1.45h.62l-.46 4.06c-.07.62.4 1.16 1.03 1.16h1.13l.78-3.8h.46l.78 3.8h1.13c.62 0 1.1-.54 1.03-1.16l-.46-4.06h.62c.88 0 1.55-.59 1.55-1.45 0-1.96-1.54-3.43-3.6-4.12.95-.55 1.6-1.57 1.6-2.75A3.15 3.15 0 0 0 12 3.1Z"/>
  </g>
</svg>
